<svg id="Layer_2" data-name="Layer 2" xmlns="http://www.w3.org/2000/svg" width="21" height="21" viewBox="0 0 21 21">
  <g id="invisible_box" data-name="invisible box">
    <rect id="Rectángulo_734" data-name="Rectángulo 734" width="21" height="21" fill="none"/>
  </g>
  <g id="icons_Q2" data-name="icons Q2" transform="translate(0.875 0.808)">
    <g id="Grupo_1617" data-name="Grupo 1617" transform="translate(0 0)">
      <circle id="Elipse_11" data-name="Elipse 11" cx="2.5" cy="2.5" r="2.5" transform="translate(7.125 0.192)" fill="#51986a"/>
      <path id="Trazado_56" data-name="Trazado 56" d="M20.375,21.875H19.5V19.25a.875.875,0,0,0-.875-.875H12.5V17.063h3.062v-1.75A8.953,8.953,0,0,0,11.625,14a8.953,8.953,0,0,0-3.937,1.313v1.75H10.75v1.313H4.625a.875.875,0,0,0-.875.875v2.625H2.875A.875.875,0,0,0,2,22.75v3.5a.875.875,0,0,0,.875.875h3.5a.875.875,0,0,0,.875-.875v-3.5a.875.875,0,0,0-.875-.875H5.5v-1.75h5.25v1.75H9.875A.875.875,0,0,0,9,22.75v3.5a.875.875,0,0,0,.875.875h3.5a.875.875,0,0,0,.875-.875v-3.5a.875.875,0,0,0-.875-.875H12.5v-1.75h5.25v1.75h-.875A.875.875,0,0,0,16,22.75v3.5a.875.875,0,0,0,.875.875h3.5a.875.875,0,0,0,.875-.875v-3.5A.875.875,0,0,0,20.375,21.875ZM5.5,25.375H3.75v-1.75H5.5Zm7,0H10.75v-1.75H12.5Zm7,0H17.75v-1.75H19.5Z" transform="translate(-2 -8.683)" fill="#51986a"/>
    </g>
  </g>
</svg>
