<svg id="Layer_2" data-name="Layer 2" xmlns="http://www.w3.org/2000/svg" width="27" height="27" viewBox="0 0 27 27">
  <g id="invisible_box" data-name="invisible box">
    <rect id="Rectángulo_730" data-name="Rectángulo 730" width="27" height="27" fill="none"/>
  </g>
  <g id="icons_Q2" data-name="icons Q2" transform="translate(2.196 2.196)">
    <path id="Trazado_49" data-name="Trazado 49" d="M26.617,21.405l-2.884-7.284a.929.929,0,0,0-1.32-.538l-3.764,2a.44.44,0,0,1-.538-.049l-4.449-5.231A.978.978,0,0,0,12,10.992V22.725H25.689a1.027,1.027,0,0,0,.929-1.32Z" transform="translate(-6.607 -6.394)" fill="none" stroke="#51986a" stroke-width="2"/>
    <path id="Trazado_50" data-name="Trazado 50" d="M24.866,23.768H6.2V5.1A1.1,1.1,0,1,0,4,5.1V25.964H24.866a1.1,1.1,0,0,0,0-2.2Z" transform="translate(-4 -4)" fill="#51986a"/>
  </g>
</svg>
