<svg xmlns="http://www.w3.org/2000/svg" width="23" height="23" viewBox="0 0 23 23">
  <g id="Grupo_1624" data-name="Grupo 1624" transform="translate(-1301 -182)">
    <g id="Grupo_1581" data-name="Grupo 1581" transform="translate(1301.333 182.333)">
      <rect id="Rect치ngulo_660" data-name="Rect치ngulo 660" width="23" height="23" rx="2" transform="translate(-0.333 -0.333)" fill="#69a47e"/>
      <g id="Layer_2" data-name="Layer 2" transform="translate(21.308 1.079) rotate(90)">
        <g id="Grupo_1593" data-name="Grupo 1593">
          <rect id="Rect치ngulo_659" data-name="Rect치ngulo 659" width="21" height="21" transform="translate(-0.413 -0.359)" fill="none"/>
          <g id="Q3_icons" data-name="Q3 icons" transform="translate(3.119 5.264)">
            <g id="Grupo_1592" data-name="Grupo 1592" transform="translate(0 0)">
              <path id="Trazado_22" data-name="Trazado 22" d="M10.94,2.647,8.536.209a.732.732,0,0,0-.941-.07.662.662,0,0,0-.07,1.045L8.78,2.438H.7a.7.7,0,0,0-.7.7H0a.7.7,0,0,0,.7.7H8.78L7.525,5.086a.662.662,0,0,0,.07,1.045.732.732,0,0,0,.941-.07l2.4-2.439a.662.662,0,0,0,0-.976Z" transform="translate(0 1.742)" fill="#fff"/>
              <path id="Trazado_23" data-name="Trazado 23" d="M1.394.7V9.058A.7.7,0,1,1,0,9.058V.7A.7.7,0,1,1,1.394.7Z" transform="translate(12.542)" fill="#fff"/>
            </g>
          </g>
        </g>
      </g>
    </g>
  </g>
</svg>
