<svg id="Layer_2" data-name="Layer 2" xmlns="http://www.w3.org/2000/svg" width="24" height="24" viewBox="0 0 24 24">
  <g id="invisible_box" data-name="invisible box">
    <rect id="Rectángulo_729" data-name="Rectángulo 729" width="24" height="24" fill="none"/>
  </g>
  <g id="icons_Q2" data-name="icons Q2" transform="translate(1 3)">
    <path id="Trazado_45" data-name="Trazado 45" d="M2,7V23a1,1,0,0,0,1,1H23a1,1,0,0,0,1-1V7a1,1,0,0,0-1-1H3A1,1,0,0,0,2,7ZM22,22H4V8H22Z" transform="translate(-2 -6)" fill="#51986a"/>
    <circle id="Elipse_8" data-name="Elipse 8" cx="1" cy="1" r="1" transform="translate(3 3)" fill="#51986a"/>
    <circle id="Elipse_9" data-name="Elipse 9" cx="1" cy="1" r="1" transform="translate(6 3)" fill="#51986a"/>
    <circle id="Elipse_10" data-name="Elipse 10" cx="1" cy="1" r="1" transform="translate(9 3)" fill="#51986a"/>
    <path id="Trazado_46" data-name="Trazado 46" d="M18,29H16V25a1,1,0,0,1,1-1h0a1,1,0,0,1,1,1Z" transform="translate(-9 -15)" fill="#51986a"/>
    <path id="Trazado_47" data-name="Trazado 47" d="M24,27H22V21a1,1,0,0,1,1-1h0a1,1,0,0,1,1,1Z" transform="translate(-12 -13)" fill="#51986a"/>
    <path id="Trazado_48" data-name="Trazado 48" d="M30,29.5H28V26a1,1,0,0,1,1-1h0a1,1,0,0,1,1,1Z" transform="translate(-15 -15.5)" fill="#51986a"/>
  </g>
</svg>
