<svg id="Layer_2" data-name="Layer 2" xmlns="http://www.w3.org/2000/svg" width="24" height="24" viewBox="0 0 24 24">
  <g id="invisible_box" data-name="invisible box">
    <rect id="Rect치ngulo_731" data-name="Rect치ngulo 731" width="24" height="24" fill="none"/>
  </g>
  <g id="icons_Q2" data-name="icons Q2" transform="translate(2 1.5)">
    <path id="Trazado_51" data-name="Trazado 51" d="M6.95,24H5a1,1,0,0,1-1-1V4A1,1,0,0,1,5,3H21a1,1,0,0,1,1,1V7.95A1.05,1.05,0,0,1,21.15,9,1,1,0,0,1,20,8V5H6V22H7a1,1,0,0,1,1,1.15A1.05,1.05,0,0,1,6.95,24Z" transform="translate(-4 -3)" fill="#51986a"/>
    <rect id="Rect치ngulo_732" data-name="Rect치ngulo 732" width="8" height="2" rx="1" transform="translate(5 5.5)" fill="#51986a"/>
    <path id="Trazado_52" data-name="Trazado 52" d="M29.2,22.192l-4.9-4.9a.95.95,0,0,0-1.4,0l-2.2,2.2H14a1,1,0,0,0,0,2h4.7l-2,2H14a1,1,0,1,0,0,2h1.5v4.5a1,1,0,0,0,1,1h4.9a1,1,0,0,0,.7-.3l7.1-7.1a.95.95,0,0,0,0-1.4Zm-8.25,6.8H17.5v-3.45l3.2-3.2,3.45,3.45Zm4.6-4.6-3.45-3.45,1.5-1.55,3.5,3.5Z" transform="translate(-8.5 -9.992)" fill="#51986a"/>
  </g>
</svg>
