<svg id="Layer_2" data-name="Layer 2" xmlns="http://www.w3.org/2000/svg" width="20" height="20" viewBox="0 0 20 20">
  <g id="invisible_box" data-name="invisible box">
    <rect id="Rectángulo_735" data-name="Rectángulo 735" width="20" height="20" fill="none"/>
  </g>
  <g id="icons_Q2" data-name="icons Q2" transform="translate(1.667 0.833)">
    <g id="Grupo_1618" data-name="Grupo 1618">
      <path id="Trazado_57" data-name="Trazado 57" d="M14.5,27.667H12.833a.833.833,0,1,1,0-1.667H14.5a.833.833,0,1,1,0,1.667Z" transform="translate(-8.667 -16)" fill="#51986a"/>
      <path id="Trazado_58" data-name="Trazado 58" d="M17.833,19.667h-5a.833.833,0,1,1,0-1.667h5a.833.833,0,1,1,0,1.667Z" transform="translate(-8.667 -11.333)" fill="#51986a"/>
      <path id="Trazado_59" data-name="Trazado 59" d="M17.833,11.667h-5a.833.833,0,0,1,0-1.667h5a.833.833,0,1,1,0,1.667Z" transform="translate(-8.667 -6.667)" fill="#51986a"/>
      <path id="Trazado_60" data-name="Trazado 60" d="M19.833,4.5h-2.5V2.833A.833.833,0,0,0,16.5,2H4.833A.833.833,0,0,0,4,2.833V16.167A.833.833,0,0,0,4.833,17H6.5v2.5a.833.833,0,0,0,.833.833h12.5a.833.833,0,0,0,.833-.833V5.333A.833.833,0,0,0,19.833,4.5ZM5.667,3.667h10V15.333h-10ZM19,18.667H8.167V17H16.5a.833.833,0,0,0,.833-.833v-10H19Z" transform="translate(-4 -2)" fill="#51986a"/>
    </g>
  </g>
</svg>
