<svg xmlns="http://www.w3.org/2000/svg" width="24.5" height="17.448" viewBox="0 0 24.5 17.448">
  <g id="Grupo_1615" data-name="Grupo 1615" transform="translate(-1622 -4832)">
    <g id="Grupo_1616" data-name="Grupo 1616" transform="translate(176 -105)">
      <g id="Layer_2" data-name="Layer 2" transform="translate(1446 4937)">
        <g id="invisible_box" data-name="invisible box">
          <rect id="Rectángulo_733" data-name="Rectángulo 733" width="16" height="16" fill="none"/>
        </g>
        <g id="icons_Q2" data-name="icons Q2" transform="translate(1.342 1.342)">
          <path id="Trazado_53" data-name="Trazado 53" d="M22.033,17.837l-1.98-5a.638.638,0,0,0-.906-.369l-2.584,1.376a.3.3,0,0,1-.369-.034l-3.053-3.59A.671.671,0,0,0,12,10.69v8.053h9.4a.7.7,0,0,0,.638-.906Z" transform="translate(-8.641 -9.005)" fill="none" stroke="#51986a" stroke-width="1.5"/>
          <path id="Trazado_54" data-name="Trazado 54" d="M16.751,16.08H5.342V4.671A.671.671,0,0,0,4,4.671V17.422H16.751a.671.671,0,0,0,0-1.342Z" transform="translate(-4 -4)" fill="#51986a"/>
        </g>
      </g>
      <g id="icons_Q2-2" data-name="icons Q2" transform="translate(1455.731 4943.706)">
        <g id="Grupo_1614" data-name="Grupo 1614" transform="translate(0 0)">
          <path id="Trazado_55" data-name="Trazado 55" d="M16.563,16.479l-3.288-3.288a.638.638,0,0,0-.94,0L6.228,19.3a.671.671,0,0,0-.2.47V19.7H2.671a.671.671,0,1,0,0,1.342H6.027v2.013a.671.671,0,0,0,.671.671H9.986a.671.671,0,0,0,.47-.2l6.107-6.107a.638.638,0,0,0,0-.94ZM9.684,22.385H7.369V20.07l3.49-3.49L13.174,18.9Zm4.429-4.429L11.8,15.641,12.8,14.6l2.349,2.349Z" transform="translate(-2 -12.985)" fill="#51986a"/>
        </g>
      </g>
    </g>
  </g>
</svg>
