<svg xmlns="http://www.w3.org/2000/svg" width="56.943" height="40.533" viewBox="0 0 56.943 40.533">
  <g id="Grupo_1554" data-name="Grupo 1554" opacity="0.75">
    <path id="Trazado_87" data-name="Trazado 87" d="M111.01,32.591,115.05,28a23.218,23.218,0,0,0-1.452-2.235l-6.417,8.486v16.99c.234-.179.52-.407.847-.676V41.331L111.011,37Z" transform="translate(-78.035 -18.759)" fill="#b5b5b5"/>
    <path id="Trazado_88" data-name="Trazado 88" d="M120.165,44.974l-1.035-.884,3.173-3.716a16.8,16.8,0,0,0-.669-1.627l-3.353,3.81v4.318L115.3,51.206v7.627c3.158-2.888,7.778-8.135,7.778-14.129a12.434,12.434,0,0,0-.32-2.763Z" transform="translate(-83.946 -28.211)" fill="#b5b5b5"/>
    <path id="Trazado_89" data-name="Trazado 89" d="M75.446,15.035,82.362,5.89A34.12,34.12,0,0,0,76.127,0a31.55,31.55,0,0,0-3.25,2.7L76.811,5.35V8.773a1.281,1.281,0,1,1-1.361,0v-2.7l-3.567-2.4a22.916,22.916,0,0,0-5.949,9.453l6.727,4.612a1.279,1.279,0,1,1-.735,1.155s0-.005,0-.008L65.621,14.56a12.164,12.164,0,0,0-.158,1.934c0,7.707,7.634,14.178,9.983,15.989Z" transform="translate(-47.662 0)" fill="#b5b5b5"/>
    <path id="Trazado_90" data-name="Trazado 90" d="M129.177,74.614c-5.231,3.209-7.352,9.752-8.031,12.468l4.364-5.771h4.971a1.281,1.281,0,1,1,0,1.361h-4.291l-4.438,5.868c2.457.6,9.629,1.926,15.1-1.43,6.7-4.112,8.3-13.691,8.3-13.691S135.88,70.5,129.18,74.611" transform="translate(-88.203 -52.725)" fill="#b5b5b5"/>
    <path id="Trazado_91" data-name="Trazado 91" d="M19.221,82.673H14.929a1.281,1.281,0,1,1,0-1.361H19.9l3.957,5.232c-.8-2.964-2.978-8.917-7.89-11.93C9.266,70.5,0,73.422,0,73.422S1.6,83,8.3,87.114c5.643,3.461,13.1,1.938,15.319,1.371Z" transform="translate(0 -52.725)" fill="#b5b5b5"/>
    <path id="Trazado_92" data-name="Trazado 92" d="M49.515,58.4a1.3,1.3,0,1,1-1.3-1.3,1.3,1.3,0,0,1,1.3,1.3" transform="translate(-34.16 -41.573)" fill="#b5b5b5"/>
    <path id="Trazado_93" data-name="Trazado 93" d="M155.522,58.4a1.3,1.3,0,1,1-1.3-1.3,1.3,1.3,0,0,1,1.3,1.3" transform="translate(-111.341 -41.573)" fill="#b5b5b5"/>
    <rect id="Rectángulo_281" data-name="Rectángulo 281" width="3.541" height="3.541" transform="translate(7.939 8.456)" fill="#b5b5b5"/>
    <rect id="Rectángulo_282" data-name="Rectángulo 282" width="3.541" height="3.541" transform="translate(45.45 8.456)" fill="#b5b5b5"/>
    <rect id="Rectángulo_283" data-name="Rectángulo 283" width="3.541" height="3.541" transform="translate(26.694 36.992)" fill="#b5b5b5"/>
  </g>
</svg>
